<svg xmlns="http://www.w3.org/2000/svg" width="17.091" height="11.54" viewBox="0 0 17.091 11.54">
  <path id="delivery_1_" data-name="delivery (1)" d="M.881,7.789A.473.473,0,0,1,.6,7.121q.022-.042.045-.083l.014-.024.033-.056.02-.031.031-.047.023-.033L.8,6.806l.026-.034.03-.039L.881,6.7l.03-.036.03-.034L.971,6.6,1,6.563l.031-.032L1.067,6.5l.032-.03.035-.032.032-.028L1.2,6.377l.033-.027.038-.029L1.307,6.3l.039-.028.034-.024.04-.027.035-.022L1.5,6.168l.035-.021.043-.025L1.611,6.1l.045-.024.035-.017.046-.022.035-.015L1.82,6,1.838,6l.11-.042.041-.014.044-.014.044-.014L2.12,5.9l.046-.013.043-.01.047-.011L2.3,5.858l.049-.01.043-.007.05-.008.043-.006.05-.006.043,0,.051,0,.043,0,.052,0h.193l.044,0h.02l.445-.782a.243.243,0,1,1,.423.241l-.427.749A4.873,4.873,0,0,1,4.993,9.439a1.891,1.891,0,0,0,.453.047H9.768V9.1a2.723,2.723,0,0,1,2.72-2.72h1.57a3.035,3.035,0,0,1,.908.138.243.243,0,1,1-.146.464,2.549,2.549,0,0,0-.762-.116h-1.57A2.236,2.236,0,0,0,10.255,9.1v.382h6.281a.069.069,0,0,0,.069-.069,2.546,2.546,0,0,0-.882-1.927.243.243,0,0,1,.318-.368,3.027,3.027,0,0,1,.364.374A3.964,3.964,0,0,0,12.648,4.78H8.841l.5,1.353A2.138,2.138,0,0,1,9.1,8.058a2.057,2.057,0,0,1-1.652.92h-1.4a1.024,1.024,0,0,1-1-.82,9.534,9.534,0,0,1,.543-4.938H5.014l-.6,1.046A.243.243,0,0,1,4,4.026l.458-.805H3.936a.431.431,0,0,1-.43-.43V1.648a.431.431,0,0,1,.535-.418L6.1,1.748l-.054-.014.08-.1a.267.267,0,0,1-.054-.076.271.271,0,0,1,.036-.285L6.619.653A.423.423,0,0,1,6.95.5L8.016.51a.38.38,0,0,1,.378.379v.254a.586.586,0,0,1-.587.585L6.695,1.72l-.247.3a.549.549,0,0,1,.066.261v.432l1.035.195A.247.247,0,0,1,7.5,3.4a.24.24,0,0,1-.046,0L6.3,3.174a.4.4,0,0,1-.189.047h0C5.791,4.1,5.072,6.394,5.52,8.04l0,.018a.537.537,0,0,0,.527.435H7.435A1.575,1.575,0,0,0,8.7,7.787,1.629,1.629,0,0,0,8.881,6.3L8.336,4.814H8.223a.268.268,0,0,1-.263-.322A2.389,2.389,0,0,1,8.282,3.7a1.377,1.377,0,0,1,1.187-.672h1.6a.408.408,0,0,1,.376.251,2.49,2.49,0,0,1,2.216-2.111V.912a.243.243,0,0,1,.487,0v.255a2.489,2.489,0,0,1,2.239,2.368.492.492,0,0,1,.431.487v.266a.492.492,0,0,1-.491.491h-.78v.588a4.434,4.434,0,0,1,1.549,3.368v.68a.556.556,0,0,1-.556.556h-.86a2.395,2.395,0,0,1-4.745,0H5.446a2.246,2.246,0,0,1-.668-.091,2.4,2.4,0,1,1-3.9-2.092Zm3.543-5.96L3.992,1.72V2.735h.432Zm3.385-.587a.1.1,0,0,0,.1-.1V1L6.975.986l-.2.248ZM6.027,2.735V2.281a.063.063,0,0,0-.048-.062L4.911,1.951v.784Zm4.959,1.554V3.514H9.469a1.05,1.05,0,0,0-.945.779h2.462ZM15.056,5V4.78h-.388A4.425,4.425,0,0,1,15.056,5ZM13.9,1.642a2,2,0,0,0-2,1.889H15.9A2,2,0,0,0,13.9,1.642Zm2.422,2.651a0,0,0,0,0,0,0V4.023a0,0,0,0,0,0,0H11.477a0,0,0,0,0,0,0v.266a0,0,0,0,0,0,0ZM12.382,9.972a.978.978,0,0,0,1.843,0Zm.921,1.58a1.9,1.9,0,0,0,1.88-1.58H14.73a1.464,1.464,0,0,1-2.854,0h-.453A1.9,1.9,0,0,0,13.3,11.553ZM4.43,8.973c.008.022.018.043.028.063l0,0,.005.011c.009.017.018.033.028.049l.005.008A4.7,4.7,0,0,0,3.011,6.3h0l-.03,0-.049,0H2.741L2.7,6.3l-.032,0-.044,0-.033,0-.043,0-.034,0-.041.006-.034.006-.04.008-.035.008-.038.009-.035.009-.037.01-.036.01-.035.011L2.142,6.4l-.034.012-.037.013-.032.013L2,6.456l-.031.013-.036.016-.03.014-.036.018-.029.015L1.8,6.553l-.028.016-.035.021-.027.017-.035.022-.026.017L1.62,6.67l-.025.018-.033.025-.024.019-.032.026-.024.02-.031.027-.023.021-.03.028-.022.022-.029.029-.022.023-.028.03-.021.025-.026.031-.02.026L1.2,7.075,1.185,7.1l-.024.033-.019.028L1.12,7.2,1.1,7.224l-.022.036-.013.023-.023.042.067,0h.026l.044,0,.049,0h.024l.062,0h.015l.067,0h.013l.069.006h.012l.076.008h.008l.08.009h.007l.082.011h.006l.085.013h0l.088.014h0l.087.016h.007l.087.017.008,0,.087.019.01,0,.087.021.011,0,.086.023.013,0,.084.024.015,0,.082.025.018.005L2.7,7.6l.02.007.079.028.022.008.077.03.024.01.074.031.027.011.071.032.03.013.069.033.032.016.066.034.034.018.063.035.036.02.061.036.037.022.058.037.039.025.056.038.04.028.048.035.023.017.024.018.027.021.04.032.026.021.013.011.071.061,0,0L4,8.342a1.623,1.623,0,0,1,.431.631A0,0,0,0,0,4.43,8.973Zm-2.65.22.235-.451A.977.977,0,1,0,3.342,9.4l-.251.481a.735.735,0,0,1-.434.363.743.743,0,0,1-.222.034.74.74,0,0,1-.654-1.082Zm.538.566a.253.253,0,0,0,.341-.107l.466-.892v0L3.3,8.424l-.1-.062-.008,0L3.1,8.3l-.023-.012-.089-.045-.035-.017L2.884,8.2l-.029-.013-.179.342-.005.01-.46.88A.253.253,0,0,0,2.319,9.759ZM2.4,11.553A1.911,1.911,0,0,0,4.3,9.644c0-.007,0-.013,0-.02a1.121,1.121,0,0,1-.143-.151l-.009-.011Q4.127,9.43,4.1,9.4L4.08,9.358,4.06,9.325l-.018-.034-.008-.015-.011-.023-.01-.021,0-.005L4,9.212c-.009-.021-.018-.042-.027-.064h0L3.97,9.133a1.164,1.164,0,0,0-.086-.174,1.143,1.143,0,0,0-.19-.235l-.067.129a1.464,1.464,0,1,1-1.318-.67L2.4,8.017A4.745,4.745,0,0,0,1.7,7.865,1.909,1.909,0,0,0,2.4,11.553Zm0,0" transform="translate(0 -0.499)" fill="#e3a819"/>
</svg>
