<svg xmlns="http://www.w3.org/2000/svg" width="14.475" height="11.771" viewBox="0 0 14.475 11.771">
  <g id="dining-table" transform="translate(0.1 -48.396)">
    <path id="Path_19892" data-name="Path 19892" d="M345.345,340.521h.418v-1.227h3.81v1.227h.418v-3.527h-4.647Zm4.228-3.109v1.464h-3.81v-1.464Z" transform="translate(-335.716 -280.454)" fill="#e3a819" stroke="#e3a819" stroke-width="0.2"/>
    <path id="Path_19893" data-name="Path 19893" d="M452.836,140.339a.837.837,0,0,0-.836.836v.673h.418v-.673a.419.419,0,0,1,.418-.418h.418V145.4h.418v-5.065Z" transform="translate(-439.398 -89.282)" fill="#e3a819" stroke="#e3a819" stroke-width="0.2"/>
    <path id="Path_19894" data-name="Path 19894" d="M345.345,212.633h.418a.419.419,0,0,1,.418-.418h2.974V211.8h-.418v-2.3h-.418v2.3h-2.137A.837.837,0,0,0,345.345,212.633Z" transform="translate(-335.716 -156.511)" fill="#e3a819" stroke="#e3a819" stroke-width="0.2"/>
    <path id="Path_19895" data-name="Path 19895" d="M.418,140.758H.836a.419.419,0,0,1,.418.418v.673h.418v-.673a.837.837,0,0,0-.836-.836H0V145.4H.418Z" transform="translate(0 -89.283)" fill="#e3a819" stroke="#e3a819" stroke-width="0.2"/>
    <path id="Path_19896" data-name="Path 19896" d="M32.974,211.8H30.836v-2.3h-.418v2.3H30v.418h2.974a.419.419,0,0,1,.418.418h.418A.837.837,0,0,0,32.974,211.8Z" transform="translate(-29.164 -156.51)" fill="#e3a819" stroke="#e3a819" stroke-width="0.2"/>
    <path id="Path_19897" data-name="Path 19897" d="M0,340.521H.418v-1.227h3.81v1.227h.418v-3.527H0Zm4.228-3.109v1.464H.418v-1.464Z" transform="translate(0 -280.454)" fill="#e3a819" stroke="#e3a819" stroke-width="0.2"/>
    <path id="Path_19898" data-name="Path 19898" d="M95.464,201.159v-4.573a.419.419,0,0,1,.418-.418h3.374v-1.673H94.836v.418h4v.836h-8.42v-.836h4v-.418H90v1.673h3.374a.419.419,0,0,1,.418.418v4.573a.419.419,0,0,1-.418.418h-.836V202h4.182v-.418h-.836A.419.419,0,0,1,95.464,201.159ZM94.1,196.168h1.062a.831.831,0,0,0-.113.418v4.573a.831.831,0,0,0,.113.418H94.1a.831.831,0,0,0,.113-.418v-4.573A.831.831,0,0,0,94.1,196.168Z" transform="translate(-87.49 -141.928)" fill="#e3a819" stroke="#e3a819" stroke-width="0.2"/>
    <path id="Path_19899" data-name="Path 19899" d="M145.953,51.73h-.636a2.611,2.611,0,0,0-2.389-2.389v-.427h.418V48.5h-1.255v.418h.418v.427a2.61,2.61,0,0,0-1.743.871l.313.277A2.188,2.188,0,0,1,144.9,51.73H140.54a2.179,2.179,0,0,1,.312-.935l-.356-.219a2.6,2.6,0,0,0-.375,1.153h-.636v.418h6.469Z" transform="translate(-135.595)" fill="#e3a819" stroke="#e3a819" stroke-width="0.2"/>
    <path id="Path_19900" data-name="Path 19900" d="M263.29,109.863a1.766,1.766,0,0,0-1.259-.806l-.055.415a1.349,1.349,0,0,1,.961.616Z" transform="translate(-254.672 -58.872)" fill="#e3a819" stroke="#e3a819" stroke-width="0.2"/>
    <path id="Path_19901" data-name="Path 19901" d="M229.818,109.057a1.761,1.761,0,0,0-.493.141l.172.381a1.342,1.342,0,0,1,.376-.108Z" transform="translate(-222.931 -58.872)" fill="#e3a819" stroke="#e3a819" stroke-width="0.2"/>
  </g>
</svg>
