<svg xmlns="http://www.w3.org/2000/svg" width="16.374" height="12.467" viewBox="0 0 16.374 12.467">
  <g id="restaurant_1_" data-name="restaurant (1)" transform="translate(0.049 -0.873)">
    <path id="Path_19869" data-name="Path 19869" d="M16,98.418a.306.306,0,0,0-.342.266l-.647,5.178H12.626l-.316-1.789a.306.306,0,0,0-.3-.253H4.282a.306.306,0,0,0-.3.253l-.32,1.79h-2.4L.612,98.684A.306.306,0,1,0,0,98.76l.681,5.447a.306.306,0,0,0,.3.268h.546L.89,108.34a.306.306,0,1,0,.6.1l.661-3.965h1.4L2.619,109.7a.306.306,0,0,0,.123.3l.007.005a2.734,2.734,0,0,0,3.037.1A4.535,4.535,0,0,0,9.67,110.1a3.986,3.986,0,0,0,1.777.453h.065a3.986,3.986,0,0,0,1.875-.47l.11-.059a.306.306,0,0,0,.157-.323l-.921-5.223h1.384l.661,3.965a.306.306,0,1,0,.6-.1l-.644-3.864h.546a.306.306,0,0,0,.3-.268l.681-5.447A.307.307,0,0,0,16,98.418ZM9.984,109.569v-3.937a.306.306,0,1,0-.613,0v3.928a3.922,3.922,0,0,1-3.3,0v-2.737a.306.306,0,0,0-.613,0v2.764a2.12,2.12,0,0,1-2.2.019l1.281-7.174h7.214l1.261,7.152A3.338,3.338,0,0,1,9.984,109.569Zm0,0" transform="translate(0 -97.275)" fill="#e3a819" stroke="#e2a818" stroke-width="0.1"/>
    <path id="Path_19870" data-name="Path 19870" d="M206.556,93.645h4.085a.306.306,0,0,0,.306-.306,2.352,2.352,0,0,0-2.042-2.328v-.286a.306.306,0,0,0-.613,0v.286a2.352,2.352,0,0,0-2.042,2.328A.306.306,0,0,0,206.556,93.645ZM208.6,91.6a1.739,1.739,0,0,1,1.709,1.43H206.89A1.739,1.739,0,0,1,208.6,91.6Zm0,0" transform="translate(-200.632 -89.495)" fill="#e3a819" stroke="#e2a818" stroke-width="0.1"/>
  </g>
</svg>
