<svg xmlns="http://www.w3.org/2000/svg" width="10.892" height="13.031" viewBox="0 0 10.892 13.031">
  <g id="packet" transform="translate(0.1 0.1)">
    <path id="Path_19828" data-name="Path 19828" d="M11.356,14.692H3.337A1.338,1.338,0,0,1,2,13.356V6.762a1.347,1.347,0,0,1,.267-.8l1.39-1.853A.267.267,0,0,1,3.871,4h6.95a.265.265,0,0,1,.156.05l.011.009a.283.283,0,0,1,.051.053L12.425,5.96a1.346,1.346,0,0,1,.267.8v6.593A1.338,1.338,0,0,1,11.356,14.692Zm-2.139-.535h2.139a.8.8,0,0,0,.8-.8V6.762A.8.8,0,0,0,12,6.282L10.821,4.713,9.645,6.281a.8.8,0,0,0-.161.482v6.593a1.331,1.331,0,0,1-.268.8ZM4,4.535,2.7,6.281a.8.8,0,0,0-.161.481v6.593a.8.8,0,0,0,.8.8H8.148a.8.8,0,0,0,.8-.8V6.762a1.347,1.347,0,0,1,.267-.8l1.069-1.426Z" transform="translate(-2 -1.862)" fill="#e3a819" stroke="#e3a819" stroke-width="0.2"/>
    <path id="Path_19829" data-name="Path 19829" d="M12.217,2.673a.267.267,0,0,1-.267-.267V.8a.268.268,0,0,0-.267-.267H5.8A.268.268,0,0,0,5.535.8v1.6a.267.267,0,1,1-.535,0V.8A.8.8,0,0,1,5.8,0h5.881a.8.8,0,0,1,.8.8v1.6A.267.267,0,0,1,12.217,2.673Z" transform="translate(-3.396)" fill="#e3a819" stroke="#e3a819" stroke-width="0.2"/>
    <path id="Path_19830" data-name="Path 19830" d="M8.406,9.346H6.8a.8.8,0,0,1-.8-.8V6.762a1.347,1.347,0,0,1,.267-.8l1.39-1.853a.268.268,0,0,1,.428.321L6.7,6.281a.8.8,0,0,0-.161.481V8.544a.268.268,0,0,0,.267.267h1.6a.268.268,0,0,0,.267-.267V6.762a1.347,1.347,0,0,1,.267-.8l1.39-1.853a.268.268,0,0,1,.428.321L9.369,6.281a.8.8,0,0,0-.161.481V8.544A.8.8,0,0,1,8.406,9.346Z" transform="translate(-3.862 -1.862)" fill="#e3a819" stroke="#e3a819" stroke-width="0.2"/>
    <path id="Path_19831" data-name="Path 19831" d="M18.267,7.742A.267.267,0,0,1,18,7.475V4.267a.267.267,0,1,1,.535,0V7.475A.267.267,0,0,1,18.267,7.742Z" transform="translate(-9.446 -1.862)" fill="#e3a819" stroke="#e3a819" stroke-width="0.2"/>
  </g>
</svg>
