<svg xmlns="http://www.w3.org/2000/svg" width="17.851" height="17.851" viewBox="0 0 17.851 17.851">
  <g id="shop" transform="translate(-15.9 -15.9)">
    <path id="Path_19853" data-name="Path 19853" d="M33.357,31H31.3v-5.91a1.279,1.279,0,0,0,.936-1.713L31.3,20.946V16.294A.294.294,0,0,0,31,16H18.648a.294.294,0,0,0-.294.294v4.652l-.936,2.435a1.279,1.279,0,0,0,.936,1.713V31H16.294A.294.294,0,0,0,16,31.3v2.059a.294.294,0,0,0,.294.294H33.357a.294.294,0,0,0,.294-.294V31.3A.294.294,0,0,0,33.357,31Zm-3.236,0V24.729a1.277,1.277,0,0,0,.588.347V31Zm-2.353.294v1.765H26.591V31h.588a.294.294,0,0,0,.294-.294v-.883a.294.294,0,0,0-.294-.294H25.414a.294.294,0,0,0-.294.294v.883a.294.294,0,0,0,.294.294H26v2.059H24.825V31.3A.294.294,0,0,0,24.531,31h-.588v-.883a.294.294,0,0,0-.294-.294H23.06V25.093a1.278,1.278,0,0,0,.727-.438c.018.022.037.044.057.065a1.267,1.267,0,0,0,.929.4h.1a1.267,1.267,0,0,0,.929-.4c.02-.021.039-.043.057-.065A1.3,1.3,0,0,0,26,24.8v.91a1.472,1.472,0,0,0-1.471,1.471.294.294,0,0,0,.294.294h2.942a.294.294,0,0,0,.294-.294,1.472,1.472,0,0,0-1.471-1.471v-.615a1.263,1.263,0,0,0,.26.027h.092a1.278,1.278,0,0,0,.976-.452l.022-.027a1.275,1.275,0,0,0,1,.479H29A1.283,1.283,0,0,0,29.532,25v4.823h-.588a.294.294,0,0,0-.294.294V31h-.588A.294.294,0,0,0,27.767,31.3Zm-2.059-.883v-.294h1.177v.294Zm-5.72-6.756.649-2.363h1.194l-.438,2.658a.689.689,0,0,1-.682.578h-.057a.691.691,0,0,1-.667-.873ZM20.119,25a1.283,1.283,0,0,0,.536.116h.057a1.275,1.275,0,0,0,1-.479l.022.027a1.277,1.277,0,0,0,.739.43v1.493H20.119Zm2.59-.472a.691.691,0,0,1-.682-.8l.4-2.433h1.2l-.142,2.583a.691.691,0,0,1-.69.653Zm2.67-.216a.685.685,0,0,1-.5.216h-.1a.691.691,0,0,1-.69-.727l.138-2.509H25.43l.138,2.507v0A.683.683,0,0,1,25.379,24.315Zm.782-.437L26.019,21.3h1.2l.4,2.433a.691.691,0,0,1-.682.8h-.092a.691.691,0,0,1-.69-.653Zm.43,2.418a.884.884,0,0,1,.832.588H25.17A.884.884,0,0,1,26,26.3Zm2.955-2.037a.686.686,0,0,1-.549.272H28.94a.689.689,0,0,1-.682-.578L27.82,21.3h1.194l.649,2.362h0A.686.686,0,0,1,29.546,24.259Zm-.308,6.156h.294V31h-.294Zm2.446-6.823a.691.691,0,1,1-1.311.431L29.624,21.3H30.8Zm-12.743-7H30.709v4.119H18.942Zm-.9,7.643a.682.682,0,0,1-.075-.639l.883-2.3h1.177l-.749,2.728a.693.693,0,0,1-.666.508A.682.682,0,0,1,18.042,24.232Zm.9.844a1.277,1.277,0,0,0,.588-.347V31h-.588ZM21.3,33.063H16.588V31.592H21.3ZM21.589,31H20.119V27.179h2.353v5.884h-.588V31.3A.294.294,0,0,0,21.589,31Zm1.471-.588h.294V31.3a.294.294,0,0,0,.294.294h.588v1.471H23.06Zm10,2.648H28.356V31.592h4.707Z" transform="translate(0)" fill="#e3a819" stroke="#e3a819" stroke-width="0.2"/>
  </g>
</svg>
